<svg xmlns="http://www.w3.org/2000/svg" viewBox="0 0 32 32">
  <defs>
    <linearGradient id="heartGrad" x1="0%" y1="0%" x2="100%" y2="100%">
      <stop offset="0%" style="stop-color:#f43f5e"/>
      <stop offset="100%" style="stop-color:#e11d48"/>
    </linearGradient>
    <linearGradient id="leafGrad" x1="0%" y1="0%" x2="100%" y2="100%">
      <stop offset="0%" style="stop-color:#22c55e"/>
      <stop offset="100%" style="stop-color:#16a34a"/>
    </linearGradient>
  </defs>
  <!-- Heart shape -->
  <path d="M16 28l-1.4-1.3C7 19.9 3 16.2 3 11.5 3 7.9 5.9 5 9.5 5c2 0 4 .9 5.2 2.4L16 9.2l1.3-1.8C18.5 5.9 20.5 5 22.5 5 26.1 5 29 7.9 29 11.5c0 4.7-4 8.4-11.6 15.2L16 28z" fill="url(#heartGrad)"/>
  <!-- Leaf accent -->
  <path d="M22 10c-3 0-6 2.5-6 6 0-3.5-3-6-6-6 2 2 3 4.5 3 7 0 1 .2 2 .5 3h5c.3-1 .5-2 .5-3 0-2.5 1-5 3-7z" fill="url(#leafGrad)" opacity="0.9"/>
</svg>
